#!OML:ASF F:\VICON\USERDATA\INSTALL\rory3\rory3.ASF
:FULLY-SPECIFIED
:DEGREES
2385
root -0.128084 17.7764 0.272733 8.43873 13.0928 -2.03416
lowerback 9.92781 1.99672 -0.658474
upperback 3.53262 2.61017 0.634551
thorax -1.9501 1.29897 0.727061
lowerneck -21.5593 -11.3935 -13.3646
upperneck 18.8305 -14.7816 13.1295
head 11.7682 -6.20081 4.39317
rclavicle 8.65956e-015 3.42904e-015
rhumerus 30.8367 -16.4391 -35.4226
rradius 63.0877
rwrist 47.8789
rhand -62.6059 -20.9421
rfingers 7.12502
rthumb -34.629 -47.584
lclavicle 8.65956e-015 3.42904e-015
lhumerus -36.3814 8.59141 71.1374
lradius 50.9288
lwrist -1.04165
lhand -24.5826 28.5898
lfingers 7.12502
lthumb 1.91465 -301.439
rfemur -19.0956 -4.10201 13.7995
rtibia 28.2981
rfoot -15.0212 -7.7581
rtoes -5.19453
lfemur -23.0249 0.520752 -12.9078
ltibia 30.5862
lfoot -11.3986 6.00572
ltoes -20.7578
2386
root -0.143531 17.7777 0.269189 8.51249 12.6727 -1.85538
lowerback 10.0245 1.88634 -0.636851
upperback 3.60144 2.46939 0.785391
thorax -1.93491 1.2281 0.885134
lowerneck -21.4799 -11.3492 -13.3497
upperneck 18.8286 -14.6818 12.946
head 11.7175 -6.17972 4.34557
rclavicle -1.75427e-014 2.68359e-015
rhumerus 30.8281 -17.1879 -35.7815
rradius 62.8249
rwrist 47.8536
rhand -62.632 -21.7525
rfingers 7.12502
rthumb -34.6538 -48.3887
lclavicle -1.75427e-014 2.68359e-015
lhumerus -36.2293 8.63304 71.2793
lradius 50.7965
lwrist -1.10224
lhand -24.5012 28.2622
lfingers 7.12502
lthumb 1.99326 -301.767
rfemur -19.2627 -3.9928 13.633
rtibia 28.3325
rfoot -14.8975 -7.63598
rtoes -7.50951
lfemur -22.9047 0.633721 -13.0566
ltibia 30.4577
lfoot -11.3505 6.18498
ltoes -20.629
2387
root -0.158322 17.7794 0.267757 8.5858 12.2852 -1.74867
lowerback 10.1213 1.80982 -0.497514
upperback 3.68344 2.38445 0.926919
thorax -1.90164 1.18541 0.961612
lowerneck -21.608 -11.3135 -13.2355
upperneck 18.9433 -14.5933 12.6815
head 11.7352 -6.15405 4.24449
rclavicle -4.52235e-015 1.66979e-014
rhumerus 30.8954 -18.2115 -36.3441
rradius 62.4929
rwrist 47.8948
rhand -62.7718 -21.3634
rfingers 7.12502
rthumb -34.7864 -47.9691
lclavicle -4.52235e-015 1.66979e-014
lhumerus -36.0408 8.47272 71.5259
lradius 50.8987
lwrist -0.891517
lhand -24.6316 27.6294
lfingers 7.12502
lthumb 1.86735 -302.399
rfemur -19.4482 -3.90711 13.5454
rtibia 28.3738
rfoot -14.7366 -7.39554
rtoes -8.12562
lfemur -22.8112 0.765055 -13.1301
ltibia 30.3337
lfoot -11.2908 6.37921
ltoes -20.7097
2388
root -0.170599 17.7808 0.269395 8.66295 11.8706 -1.64145
lowerback 10.1522 1.75763 -0.457134
upperback 3.40576 2.32423 1.08234
thorax -2.21006 1.15613 1.10033
lowerneck -20.3569 -11.1148 -13.3321
upperneck 18.8478 -14.4161 12.6495
head 11.4449 -6.14203 4.32587
rclavicle 2.67365e-014 1.09332e-014
rhumerus 30.3049 -18.5338 -36.5065
rradius 62.3221
rwrist 47.6268
rhand -62.7015 -20.314
rfingers 7.12502
rthumb -34.7197 -46.935
lclavicle 2.67365e-014 1.09332e-014
lhumerus -36.6552 7.99233 71.7035
lradius 51.176
lwrist -0.58454
lhand -25.0857 26.2898
lfingers 7.12502
lthumb 1.42881 -303.735
rfemur -19.6351 -3.77615 13.4535
rtibia 28.4161
rfoot -14.6045 -7.18501
rtoes -8.13884
lfemur -22.6872 0.855356 -13.2161
ltibia 30.1979
lfoot -11.2526 6.66224
ltoes -20.6497
2389
root -0.182204 17.7848 0.270576 8.74084 11.4483 -1.48659
lowerback 10.2934 1.61225 -0.316066
upperback 3.57958 2.14894 1.23331
thorax -2.10374 1.06803 1.19741
lowerneck -21.3956 -11.2351 -13.5655
upperneck 19.4561 -14.4272 12.5541
head 11.8803 -6.11757 4.29753
rclavicle -2.98177e-016 -1.05356e-014
rhumerus 30.6121 -19.3225 -36.8705
rradius 62.0069
rwrist 47.4574
rhand -62.9004 -20.4819
rfingers 7.12502
rthumb -34.9085 -47.0593
lclavicle -2.98177e-016 -1.05356e-014
lhumerus -36.4138 8.01479 72.0279
lradius 51.5018
lwrist -0.470795
lhand -24.8845 27.4486
lfingers 7.12502
lthumb 1.62311 -302.578
rfemur -19.8036 -3.62314 13.2988
rtibia 28.4421
rfoot -14.4267 -7.0229
rtoes -8.65243
lfemur -22.544 0.892396 -13.3523
ltibia 30.026
lfoot -11.2453 6.95561
ltoes -20.3193
2390
root -0.195503 17.7894 0.272637 8.91092 11.0564 -1.36755
lowerback 10.2295 1.5491 -0.327062
upperback 3.46554 2.06908 1.38673
thorax -2.19103 1.02817 1.37179
lowerneck -20.95 -11.122 -13.4316
upperneck 19.5734 -14.3216 12.338
head 11.7933 -6.1024 4.23419
rclavicle -1.21259e-014 1.15295e-014
rhumerus 30.3286 -19.8179 -37.0659
rradius 61.7456
rwrist 47.2984
rhand -63.3854 -21.9284
rfingers 7.12502
rthumb -35.3684 -48.3977
lclavicle -1.21259e-014 1.15295e-014
lhumerus -36.7069 7.62236 72.2538
lradius 51.9037
lwrist -0.599865
lhand -24.2715 30.0416
lfingers 7.12502
lthumb 2.21516 -299.99
rfemur -20.079 -3.45716 13.1923
rtibia 28.4928
rfoot -14.3202 -6.85126
rtoes -8.70075
lfemur -22.507 0.924522 -13.4445
ltibia 29.8262
lfoot -11.164 7.26861
ltoes -20.314
